<?xml version="1.0" encoding="utf-8"?>
<!-- Generator: Adobe Illustrator 21.1.0, SVG Export Plug-In . SVG Version: 6.00 Build 0)  -->
<svg version="1.1" id="Layer_1" xmlns="http://www.w3.org/2000/svg" xmlns:xlink="http://www.w3.org/1999/xlink" x="0px" y="0px"
	 viewBox="0 0 400 156" style="enable-background:new 0 0 400 156;" xml:space="preserve">
<style type="text/css">
	.st0{fill:#929497;}
	.st1{opacity:0.15;enable-background:new    ;}
	.st2{fill:#4A2771;}
</style>
<title>configr_positivo</title>
<path class="st0" d="M196.5,73c-0.2,0.2-0.4,0.4-0.6,0.6c-0.2,0.2-0.5,0.2-0.8,0.2c-0.4,0-0.8-0.2-1.2-0.4c-0.5-0.4-1.1-0.7-1.6-1
	c-0.8-0.4-1.6-0.7-2.4-1c-1.1-0.3-2.3-0.5-3.4-0.4c-1.6,0-3.3,0.3-4.8,1c-1.4,0.6-2.6,1.6-3.5,2.8c-1,1.3-1.7,2.8-2.1,4.4
	c-0.5,1.9-0.7,3.8-0.7,5.8c0,2,0.2,4,0.8,6c0.4,1.6,1.2,3.1,2.1,4.4c0.9,1.2,2,2.1,3.4,2.7c1.4,0.6,2.9,1,4.5,0.9
	c1.3,0,2.6-0.2,3.9-0.6c0.9-0.3,1.8-0.8,2.5-1.4c0.6-0.4,1.1-0.8,1.7-1.2c0.4-0.3,0.8-0.5,1.3-0.6c0.5,0,1,0.2,1.2,0.6l1.8,2.4
	c-1.6,2-3.6,3.4-6,4.3c-2.4,0.9-5,1.4-7.6,1.4c-2.2,0-4.4-0.4-6.4-1.3c-2-0.8-3.7-2.1-5.1-3.7c-1.5-1.8-2.7-3.8-3.4-6
	c-0.9-2.6-1.3-5.3-1.3-8.1c0-2.6,0.4-5.2,1.1-7.6c0.7-2.2,1.8-4.2,3.4-6c1.5-1.7,3.4-3.1,5.4-3.9c2.4-1,4.9-1.5,7.4-1.4
	c2.3,0,4.7,0.4,6.9,1.3c2,0.8,3.8,2,5.3,3.6L196.5,73z"/>
<path class="st0" d="M220,65.9c2.5,0,5,0.4,7.3,1.3c2.1,0.8,4,2.1,5.6,3.8c1.6,1.7,2.8,3.8,3.5,6c1.6,5.1,1.6,10.6,0,15.7
	c-0.7,2.2-1.9,4.3-3.5,6c-1.5,1.7-3.4,3-5.5,3.8c-4.7,1.8-9.9,1.8-14.6,0c-2.1-0.8-4-2.1-5.6-3.8c-1.6-1.7-2.8-3.8-3.5-6
	c-1.7-5.1-1.7-10.6,0-15.7c0.8-2.2,2-4.3,3.5-6c1.6-1.7,3.5-3,5.6-3.8C215.1,66.3,217.5,65.8,220,65.9 M220,98.8
	c3.6,0,6.4-1.2,8.2-3.7s2.7-5.8,2.7-10.2c0-4.4-0.9-7.8-2.7-10.3S223.7,71,220,71c-1.7,0-3.3,0.3-4.8,0.9c-1.3,0.6-2.5,1.6-3.4,2.7
	c-1,1.3-1.6,2.8-2,4.4c-0.9,3.9-0.9,7.9,0,11.8c0.4,1.6,1,3,2,4.3c0.9,1.2,2.1,2.1,3.4,2.7C216.7,98.6,218.3,98.9,220,98.8"/>
<path class="st0" d="M245.2,103.3V66.4h3.9c0.8-0.1,1.6,0.5,1.8,1.3l0.5,4c1.5-1.7,3.4-3.2,5.4-4.3c2.1-1.1,4.5-1.7,6.9-1.6
	c1.8,0,3.6,0.3,5.3,1c1.5,0.6,2.8,1.6,3.9,2.8c1.1,1.3,1.9,2.8,2.4,4.4c0.6,1.9,0.8,3.8,0.8,5.7v23.5h-6.5V79.8
	c0.1-2.3-0.5-4.6-1.9-6.5c-1.3-1.5-3.2-2.3-5.9-2.3c-1.9,0-3.7,0.5-5.4,1.4c-1.7,1-3.3,2.2-4.6,3.8v27.2H245.2z"/>
<path class="st0" d="M289.4,103.3V72l-4.1-0.5c-0.5-0.1-0.9-0.3-1.2-0.6c-0.3-0.3-0.5-0.7-0.5-1.1v-2.7h5.8v-2
	c0-2.1,0.3-4.2,1.1-6.2c0.7-1.8,1.8-3.5,3.2-4.9c1.5-1.4,3.3-2.5,5.3-3.2c3.3-1.1,6.7-1.4,10.1-1c0.9,0.1,1.7,0.3,2.5,0.6l-0.2,3.4
	c0,0.3-0.2,0.5-0.4,0.6c-0.3,0.1-0.7,0.1-1.1,0.1H308c-4.3,0-7.4,0.9-9.4,2.7s-2.9,4.4-2.9,8v1.9H318v36.2h-6.5V71.9h-15.6v31.5
	L289.4,103.3z"/>
<path class="st0" d="M342.9,65.8c1.5,0,3,0.2,4.5,0.5c1.3,0.3,2.6,0.9,3.8,1.6h10v2.4c0,0.8-0.5,1.3-1.5,1.5l-4.2,0.6
	c1.6,3.2,1.6,6.9,0.2,10.2c-0.7,1.4-1.7,2.7-2.9,3.8c-1.3,1.1-2.8,1.9-4.4,2.4c-1.8,0.6-3.7,0.9-5.5,0.8c-1.6,0-3.3-0.2-4.9-0.6
	c-0.7,0.4-1.3,1-1.8,1.6c-0.4,0.5-0.6,1.1-0.6,1.7c0,0.8,0.4,1.6,1.1,2.1c0.9,0.5,1.8,0.9,2.8,1c1.3,0.2,2.7,0.3,4,0.3h4.5
	c1.5,0,3,0.1,4.5,0.4c1.4,0.2,2.7,0.7,4,1.3c1.1,0.6,2.1,1.5,2.8,2.5c0.8,1.3,1.1,2.7,1.1,4.2c0,1.6-0.4,3.2-1.2,4.7
	c-0.8,1.6-2,2.9-3.4,4c-1.6,1.2-3.5,2.2-5.4,2.8c-2.3,0.7-4.8,1.1-7.2,1.1c-2.4,0-4.8-0.2-7.1-0.8c-1.8-0.4-3.5-1.2-5-2.2
	c-1.2-0.8-2.3-1.9-3-3.1c-0.7-1.1-1-2.4-1-3.7c0-1.7,0.6-3.4,1.7-4.7c1.3-1.4,3-2.4,4.8-3c-1-0.4-1.8-1.1-2.5-1.9
	c-1-1.5-1.2-3.3-0.6-4.9c0.2-0.6,0.5-1.2,0.9-1.7c0.4-0.6,0.9-1.1,1.5-1.6c0.6-0.5,1.3-1,2-1.3c-1.8-1-3.2-2.4-4.3-4.1
	c-1.1-1.8-1.6-3.8-1.5-5.9c0-1.7,0.3-3.4,1-4.9c0.7-1.5,1.7-2.7,2.9-3.8c1.3-1.1,2.8-1.9,4.4-2.4C339.1,66.1,341,65.8,342.9,65.8
	 M354.4,105.3c0-0.8-0.2-1.6-0.8-2.3c-0.6-0.6-1.3-1.1-2.1-1.3c-1-0.3-2-0.6-3-0.7c-1.2-0.2-2.4-0.2-3.6-0.2h-3.9
	c-1.3,0-2.5-0.2-3.8-0.5c-1.3,0.6-2.4,1.4-3.4,2.4c-0.9,0.9-1.3,2.1-1.3,3.4c0,0.8,0.2,1.6,0.6,2.3c0.5,0.8,1.2,1.4,2,1.9
	c1,0.6,2.1,1,3.3,1.2c1.5,0.3,3.1,0.5,4.7,0.4c1.6,0,3.1-0.1,4.7-0.5c1.2-0.3,2.4-0.7,3.5-1.4c0.9-0.5,1.6-1.3,2.2-2.1
	C354.2,107.2,354.4,106.2,354.4,105.3 M342.9,85.4c1.2,0,2.4-0.2,3.5-0.6c0.9-0.3,1.8-0.8,2.5-1.5c0.7-0.7,1.2-1.5,1.5-2.3
	c0.3-1,0.5-2,0.5-3c0.1-2-0.6-4-2.1-5.4c-1.7-1.4-3.8-2.2-6-2c-2.2-0.2-4.3,0.6-6,2c-1.4,1.4-2.2,3.4-2.1,5.4c0,1,0.2,2,0.5,3
	c0.3,0.9,0.9,1.7,1.5,2.3c0.7,0.7,1.6,1.2,2.5,1.5C340.5,85.2,341.7,85.4,342.9,85.4"/>
<path class="st0" d="M369.1,103.3V66.4h3.7c0.5-0.1,1,0.1,1.5,0.4c0.3,0.4,0.5,0.9,0.5,1.4l0.4,5.8c1.1-2.3,2.7-4.4,4.7-6
	c2.7-2,6.1-2.6,9.3-1.8c0.8,0.2,1.6,0.6,2.3,1l-0.8,4.8c-0.1,0.5-0.6,0.9-1.1,0.9c-0.5,0-1.1-0.2-1.6-0.3c-1-0.3-2-0.4-3-0.3
	c-2.1-0.1-4.1,0.7-5.7,2c-1.7,1.6-3,3.5-3.8,5.7v23.5L369.1,103.3z"/>
<path class="st1" d="M135.9,19.4c0.2,0.8,0.2,1.6,0.2,2.4V124c0,7-5.7,12.7-12.8,12.8H21.2c-0.6,0-1.1,0-1.7-0.1
	c1.2,6,6.4,10.3,12.5,10.3h102.1c7.1,0,12.8-5.7,12.8-12.8c0,0,0,0,0,0V32C147,25.6,142.2,20.2,135.9,19.4z"/>
<path class="st2" d="M135.9,19.4c-1.2-6-6.4-10.3-12.5-10.3H21.2c-7,0-12.7,5.7-12.8,12.8V124c0.1,7,5.7,12.7,12.8,12.8h102.1
	c7,0,12.7-5.7,12.8-12.8V21.8C136.1,21,136,20.2,135.9,19.4z M89.4,102.3c-4.1,1.8-8.5,2.6-12.9,2.5c-4.1,0.1-8.2-0.7-12-2.3
	c-3.5-1.5-6.6-3.7-9.2-6.5c-2.6-2.9-4.6-6.4-5.9-10.1c-1.4-4.2-2.1-8.5-2.1-12.9c0-4.4,0.7-8.8,2.3-12.9c1.4-3.8,3.5-7.2,6.3-10.1
	c2.7-2.8,6-5.1,9.7-6.6c4-1.6,8.2-2.4,12.5-2.3c4-0.1,7.9,0.6,11.6,2.1c3.2,1.4,6.1,3.4,8.7,5.8l-2.7,3.9c-0.2,0.3-0.4,0.5-0.7,0.7
	c-0.3,0.2-0.7,0.3-1.1,0.3c-0.4,0-0.8-0.2-1.2-0.4c-0.4-0.3-0.9-0.6-1.5-1c-0.6-0.4-1.2-0.8-2-1.3c-0.9-0.5-1.8-1-2.7-1.3
	c-1.2-0.4-2.4-0.8-3.7-1c-1.6-0.3-3.2-0.5-4.8-0.5c-3.1,0-6.1,0.5-9,1.7c-2.7,1.1-5,2.8-7,4.9c-2,2.2-3.6,4.9-4.6,7.8
	c-1.1,3.3-1.7,6.8-1.6,10.2c-0.1,3.5,0.5,7.1,1.6,10.4c1,2.8,2.5,5.5,4.5,7.7c1.9,2.1,4.1,3.7,6.7,4.8c2.7,1.1,5.5,1.7,8.4,1.7
	c1.6,0,3.3-0.1,4.9-0.3c1.4-0.2,2.7-0.5,4-1c1.2-0.5,2.4-1,3.4-1.8c1.1-0.8,2.2-1.6,3.2-2.6c0.4-0.4,0.9-0.6,1.4-0.7
	c0.5,0,0.9,0.2,1.2,0.6l3.2,3.6C96,98.4,92.9,100.7,89.4,102.3z"/>
</svg>
