<svg xmlns="http://www.w3.org/2000/svg" xmlns:xlink="http://www.w3.org/1999/xlink" viewBox="0 0 911.63 283.75"><defs><style>.cls-1{fill:none;}.cls-2{fill:#ffc107;}.cls-3{fill:#0f9d58;}.cls-4{fill:#bf360c;}.cls-11,.cls-12,.cls-4,.cls-5,.cls-6{opacity:0.2;isolation:isolate;}.cls-5{fill:#263238;}.cls-6{fill:#fff;}.cls-7{fill:url(#radial-gradient);}.cls-8{fill:url(#radial-gradient-2);}.cls-9{fill:#4285f4;}.cls-10{fill:#db4437;}.cls-11{fill:#1a237e;}.cls-12{fill:#3e2723;}.cls-13{fill:url(#radial-gradient-3);}.cls-14{fill:#424242;}</style><radialGradient id="radial-gradient" cx="131.4" cy="1699.66" r="98.12" gradientTransform="matrix(1, 0, 0, -1, 0, 1926.6)" gradientUnits="userSpaceOnUse"><stop offset="0" stop-color="#bf360c" stop-opacity="0.2"/><stop offset="1" stop-color="#bf360c" stop-opacity="0.02"/></radialGradient><radialGradient id="radial-gradient-2" cx="131.12" cy="1699.04" r="98.92" gradientTransform="matrix(1, 0, 0, -1, 0, 1926.6)" gradientUnits="userSpaceOnUse"><stop offset="0" stop-color="#263238" stop-opacity="0.2"/><stop offset="1" stop-color="#263238" stop-opacity="0.02"/></radialGradient><radialGradient id="radial-gradient-3" cx="-2.22" cy="1924.38" r="297.82" gradientTransform="matrix(1, 0, 0, -1, 0, 1926.6)" gradientUnits="userSpaceOnUse"><stop offset="0" stop-color="#fff" stop-opacity="0.1"/><stop offset="1" stop-color="#fff" stop-opacity="0"/></radialGradient></defs><title>Asset 3</title><g id="Layer_2" data-name="Layer 2"><g id="Layer_1-2" data-name="Layer 1"><g id="_Group_" data-name="&lt;Group&gt;"><g id="_Group_2" data-name="&lt;Group&gt;"><path class="cls-1" d="M173.77,128.57,99.42,0H0L82.06,141.87,0,283.75H99.42l74.35-128.58A26.51,26.51,0,0,0,173.77,128.57Z"/><polygon id="_Path_" data-name="&lt;Path&gt;" class="cls-2" points="131.12 226.71 107.56 185.94 50.98 283.75 99.42 283.75 131.76 227.82 131.12 226.71"/><path class="cls-1" d="M173.77,128.57,99.42,0H0L82.06,141.87,0,283.75H99.42l74.35-128.58A26.51,26.51,0,0,0,173.77,128.57Z"/><polygon class="cls-3" points="82.06 141.87 107.56 185.94 50.98 283.75 0 283.75 82.06 141.87"/><path class="cls-1" d="M173.77,128.57,99.42,0H0L82.06,141.87,0,283.75H99.42l74.35-128.58A26.51,26.51,0,0,0,173.77,128.57Z"/><polygon class="cls-4" points="99.42 281.53 52.27 281.53 50.98 283.75 99.42 283.75 131.76 227.82 131.12 226.71 99.42 281.53"/><path class="cls-1" d="M173.77,128.57,99.42,0H0L82.06,141.87,0,283.75H99.42l74.35-128.58A26.51,26.51,0,0,0,173.77,128.57Z"/><polygon class="cls-5" points="1.29 281.53 0 283.75 50.98 283.75 52.27 281.53 1.29 281.53"/><path class="cls-1" d="M173.77,128.57,99.42,0H0L82.06,141.87,0,283.75H99.42l74.35-128.58A26.51,26.51,0,0,0,173.77,128.57Z"/><polygon class="cls-6" points="0 283.75 1.29 283.75 82.71 142.98 82.06 141.87 0 283.75"/><path class="cls-1" d="M173.77,128.57,99.42,0H0L82.06,141.87,0,283.75H99.42l74.35-128.58A26.51,26.51,0,0,0,173.77,128.57Z"/><polygon id="_Path_2" data-name="&lt;Path&gt;" class="cls-7" points="131.76 227.82 131.76 227.82 107.56 185.94 101.62 196.21 131.76 227.82"/><path class="cls-1" d="M173.77,128.57,99.42,0H0L82.06,141.87,0,283.75H99.42l74.35-128.58A26.51,26.51,0,0,0,173.77,128.57Z"/><polygon id="_Path_3" data-name="&lt;Path&gt;" class="cls-8" points="101.62 196.21 107.56 185.94 82.06 141.87 69.89 162.93 101.62 196.21"/><path class="cls-1" d="M173.77,128.57,99.42,0H0L82.06,141.87,0,283.75H99.42l74.35-128.58A26.51,26.51,0,0,0,173.77,128.57Z"/><g id="_Group_3" data-name="&lt;Group&gt;"><g id="_Group_4" data-name="&lt;Group&gt;"><polygon id="_Path_4" data-name="&lt;Path&gt;" class="cls-9" points="50.98 0 0 0 131.76 227.82 157.24 183.77 157.26 183.72 50.98 0"/></g></g><path class="cls-1" d="M173.77,128.57,99.42,0H0L82.06,141.87,0,283.75H99.42l74.35-128.58A26.51,26.51,0,0,0,173.77,128.57Z"/><path class="cls-10" d="M173.77,155.17a26.51,26.51,0,0,0,0-26.6L99.42,0H51L157.26,183.72Z"/><path class="cls-1" d="M173.77,128.57,99.42,0H0L82.06,141.87,0,283.75H99.42l74.35-128.58A26.51,26.51,0,0,0,173.77,128.57Z"/><polygon class="cls-11" points="157.26 183.72 156.61 182.64 131.76 225.6 1.29 0 0 0 131.76 227.82 157.24 183.77 157.26 183.72"/><path class="cls-1" d="M173.77,128.57,99.42,0H0L82.06,141.87,0,283.75H99.42l74.35-128.58A26.51,26.51,0,0,0,173.77,128.57Z"/><path class="cls-6" d="M99.42,2.22l74.35,128.57a26.32,26.32,0,0,1,3.5,12.19,26.57,26.57,0,0,0-3.5-14.41L99.42,0H0L1.29,2.22Z"/><path class="cls-1" d="M173.77,128.57,99.42,0H0L82.06,141.87,0,283.75H99.42l74.35-128.58A26.51,26.51,0,0,0,173.77,128.57Z"/><path id="_Path_5" data-name="&lt;Path&gt;" class="cls-12" d="M157.26,183.72l16.51-28.55a26.53,26.53,0,0,0,3.5-14.41,26.33,26.33,0,0,1-3.5,12.2l-17.16,29.68Z"/><path class="cls-1" d="M173.77,128.57,99.42,0H0L82.06,141.87,0,283.75H99.42l74.35-128.58A26.51,26.51,0,0,0,173.77,128.57Z"/><path id="_Path_6" data-name="&lt;Path&gt;" class="cls-13" d="M173.77,128.57,99.42,0H0L82.06,141.87,0,283.75H99.42l74.35-128.58A26.51,26.51,0,0,0,173.77,128.57Z"/></g></g><path class="cls-14" d="M247.83,241.43v-83.6h27.33a46.52,46.52,0,0,1,11.48,1.29,23.31,23.31,0,0,1,8.59,4,17.7,17.7,0,0,1,5.39,6.92,24.5,24.5,0,0,1,1.87,10.05,17,17,0,0,1-3.33,10.36,21.57,21.57,0,0,1-9.07,7,20.57,20.57,0,0,1,6.23,2.87,18.81,18.81,0,0,1,4.59,4.48,19.47,19.47,0,0,1,2.84,5.8,23,23,0,0,1,1,6.72,25.53,25.53,0,0,1-2,10.36,20.81,20.81,0,0,1-5.6,7.58,24,24,0,0,1-8.73,4.62,39.11,39.11,0,0,1-11.36,1.55Zm11-47.94H275.5a21.65,21.65,0,0,0,6.49-.92,14.78,14.78,0,0,0,5-2.64,11.91,11.91,0,0,0,3.24-4.22,13.34,13.34,0,0,0,1.15-5.66q0-6.88-4-10t-12.23-3.13H258.85Zm0,8.84v30.09h18.21a21.41,21.41,0,0,0,7-1.07,14.67,14.67,0,0,0,5.19-3,12.56,12.56,0,0,0,3.25-4.71,16.5,16.5,0,0,0,1.12-6.23,20.17,20.17,0,0,0-.92-6.26,11.64,11.64,0,0,0-2.9-4.76,13.35,13.35,0,0,0-5-3,22,22,0,0,0-7.24-1.06Z"/><path class="cls-14" d="M349.4,188.84c-.92-.16-1.77-.26-2.55-.32s-1.68-.09-2.67-.09a15.4,15.4,0,0,0-9,2.42,14.62,14.62,0,0,0-5.2,6.48v44.1H319.37V179.31h10.34l.17,7.17a18.74,18.74,0,0,1,6-6.08,16.3,16.3,0,0,1,8.78-2.24,14.85,14.85,0,0,1,2.64.26,8.33,8.33,0,0,1,2.07.54Z"/><path class="cls-14" d="M395.22,241.43a11.52,11.52,0,0,1-.92-2.9c-.23-1.17-.42-2.38-.57-3.64a29.52,29.52,0,0,1-3.36,3,24.46,24.46,0,0,1-4.08,2.47A23.52,23.52,0,0,1,381.5,242a24.11,24.11,0,0,1-5.46.6,24.62,24.62,0,0,1-8.64-1.44,20,20,0,0,1-6.6-3.9,17.15,17.15,0,0,1-4.22-5.83,17.46,17.46,0,0,1-1.5-7.2,19,19,0,0,1,2-8.82,17.5,17.5,0,0,1,5.6-6.4,26.37,26.37,0,0,1,8.81-3.9A46.6,46.6,0,0,1,383,203.76h10.56v-4.87a12,12,0,0,0-3.33-8.88q-3.33-3.3-9.81-3.3a17.43,17.43,0,0,0-5.46.81,13.85,13.85,0,0,0-4.22,2.15A10,10,0,0,0,368,192.8a7.66,7.66,0,0,0-1,3.73H356.35a13.82,13.82,0,0,1,1.75-6.6,19.35,19.35,0,0,1,5-5.89,26.17,26.17,0,0,1,7.78-4.25A30,30,0,0,1,381,178.16a32.22,32.22,0,0,1,9.33,1.29,19.93,19.93,0,0,1,7.32,3.9,18,18,0,0,1,4.76,6.52,22.43,22.43,0,0,1,1.73,9.13v28.88a43.09,43.09,0,0,0,.54,6.63,25,25,0,0,0,1.64,6v.92Zm-17.63-8.09a17.55,17.55,0,0,0,5.4-.81,19.84,19.84,0,0,0,4.59-2.09,17.23,17.23,0,0,0,3.59-3,14.14,14.14,0,0,0,2.38-3.45V211.29h-8.84q-9.12,0-14.06,2.84a9.26,9.26,0,0,0-4.94,8.58,11.76,11.76,0,0,0,.74,4.19,8.75,8.75,0,0,0,2.27,3.36,11.14,11.14,0,0,0,3.73,2.24A14.46,14.46,0,0,0,377.59,233.34Z"/><path class="cls-14" d="M457,225a9.83,9.83,0,0,0-.52-3.24,6.77,6.77,0,0,0-2-2.87,15.37,15.37,0,0,0-4.34-2.5,44.29,44.29,0,0,0-7.41-2.12,70.14,70.14,0,0,1-9.3-2.59,28.2,28.2,0,0,1-7-3.59,14.73,14.73,0,0,1-4.45-5,14,14,0,0,1-1.55-6.72,15.4,15.4,0,0,1,1.64-7,17.91,17.91,0,0,1,4.62-5.8,22.81,22.81,0,0,1,7.23-4,28.84,28.84,0,0,1,9.48-1.46,30.2,30.2,0,0,1,10,1.52,22.62,22.62,0,0,1,7.46,4.16,17.79,17.79,0,0,1,4.68,6.17,18.09,18.09,0,0,1,1.61,7.55H456.37a9.32,9.32,0,0,0-.86-3.81A10.5,10.5,0,0,0,453,190.3a13.08,13.08,0,0,0-4.08-2.47,15.13,15.13,0,0,0-5.56-1,17.9,17.9,0,0,0-5.66.78,11.29,11.29,0,0,0-3.82,2.07,8,8,0,0,0-2.18,2.92A8.64,8.64,0,0,0,431,196a7.82,7.82,0,0,0,.58,3.1,5.77,5.77,0,0,0,2.18,2.5,17.53,17.53,0,0,0,4.39,2.07,70.3,70.3,0,0,0,7.21,1.92,69.71,69.71,0,0,1,9.87,3,27,27,0,0,1,6.95,3.87,14.3,14.3,0,0,1,4.1,5.09,15.47,15.47,0,0,1,1.35,6.66,16.45,16.45,0,0,1-1.69,7.46,16.63,16.63,0,0,1-4.85,5.8,23.8,23.8,0,0,1-7.58,3.76,33.55,33.55,0,0,1-9.82,1.35,31.93,31.93,0,0,1-10.94-1.72,24.37,24.37,0,0,1-7.95-4.57,19.26,19.26,0,0,1-4.88-6.49,17.83,17.83,0,0,1-1.67-7.49h10.63a11.05,11.05,0,0,0,1.58,5.48,11.53,11.53,0,0,0,3.53,3.59,14.33,14.33,0,0,0,4.65,2,22.87,22.87,0,0,0,5.05.57,21.39,21.39,0,0,0,5.74-.69,13.22,13.22,0,0,0,4.16-1.89,8.21,8.21,0,0,0,2.56-2.85A7.49,7.49,0,0,0,457,225Z"/><path class="cls-14" d="M493.12,153.41H506l-15.39,16.88H482Zm-.12,88H482.32V179.31H493Z"/><path class="cls-14" d="M522.05,241.43H511.43V153.24h10.62Z"/><path class="cls-14" d="M539.11,162.83a6.32,6.32,0,0,1,1.58-4.37,5.94,5.94,0,0,1,4.68-1.78,6,6,0,0,1,4.7,1.78,6.25,6.25,0,0,1,1.61,4.37,6,6,0,0,1-1.61,4.3,6.12,6.12,0,0,1-4.7,1.73,6,6,0,0,1-4.68-1.73A6.09,6.09,0,0,1,539.11,162.83Zm11.48,78.6H540V179.31h10.62Z"/><path class="cls-14" d="M605.94,241.43a11.52,11.52,0,0,1-.92-2.9c-.23-1.17-.42-2.38-.57-3.64a29.52,29.52,0,0,1-3.36,3,24.46,24.46,0,0,1-4.08,2.47,23.52,23.52,0,0,1-4.79,1.67,24,24,0,0,1-5.46.6,24.7,24.7,0,0,1-8.64-1.44,20,20,0,0,1-6.6-3.9,17.15,17.15,0,0,1-4.22-5.83,17.45,17.45,0,0,1-1.49-7.2,19.16,19.16,0,0,1,2-8.82,17.6,17.6,0,0,1,5.6-6.4,26.46,26.46,0,0,1,8.81-3.9,46.6,46.6,0,0,1,11.54-1.33h10.57v-4.87a12,12,0,0,0-3.34-8.88c-2.21-2.2-5.49-3.3-9.81-3.3a17.48,17.48,0,0,0-5.46.81,13.85,13.85,0,0,0-4.22,2.15,9.94,9.94,0,0,0-2.72,3.13,7.56,7.56,0,0,0-1,3.73H567.07a13.82,13.82,0,0,1,1.75-6.6,19.35,19.35,0,0,1,5-5.89,26.17,26.17,0,0,1,7.78-4.25,30,30,0,0,1,10.19-1.63,32.18,32.18,0,0,1,9.33,1.29,19.93,19.93,0,0,1,7.32,3.9,18.17,18.17,0,0,1,4.77,6.52A22.6,22.6,0,0,1,614.9,199v28.88a43.09,43.09,0,0,0,.54,6.63,25,25,0,0,0,1.64,6v.92Zm-17.63-8.09a17.55,17.55,0,0,0,5.4-.81,19.66,19.66,0,0,0,4.59-2.09,17.23,17.23,0,0,0,3.59-3,14.48,14.48,0,0,0,2.39-3.45V211.29h-8.85q-9.12,0-14.06,2.84a9.26,9.26,0,0,0-4.94,8.58,11.76,11.76,0,0,0,.74,4.19,8.75,8.75,0,0,0,2.27,3.36,11.24,11.24,0,0,0,3.73,2.24A14.46,14.46,0,0,0,588.31,233.34Z"/><path class="cls-14" d="M714.35,241.43H659.57v-7.64L687,203.36q3.78-4.19,6.28-7.4a45.85,45.85,0,0,0,4-5.89,21,21,0,0,0,2-5,19.35,19.35,0,0,0,.58-4.74,17.19,17.19,0,0,0-1-5.83,13.9,13.9,0,0,0-2.81-4.74,13.18,13.18,0,0,0-4.54-3.18,15.27,15.27,0,0,0-6.2-1.18,19.73,19.73,0,0,0-7.38,1.26,14.23,14.23,0,0,0-5.19,3.51,14.48,14.48,0,0,0-3.1,5.36,22,22,0,0,0-1,6.92H658a28.37,28.37,0,0,1,1.75-10,23,23,0,0,1,5.2-8.21,24.74,24.74,0,0,1,8.55-5.54,31.76,31.76,0,0,1,11.83-2,32.6,32.6,0,0,1,10.6,1.61,22.2,22.2,0,0,1,7.92,4.57,19.75,19.75,0,0,1,5,7.09,23.65,23.65,0,0,1,1.72,9.13,22.76,22.76,0,0,1-1.27,7.4,42.3,42.3,0,0,1-3.38,7.44,60.48,60.48,0,0,1-5,7.35q-2.86,3.64-6,7.15l-22.45,24.34h42Z"/><path class="cls-14" d="M778,205.77a69.37,69.37,0,0,1-1.84,17.32,30.57,30.57,0,0,1-5.25,11.36,19.28,19.28,0,0,1-8.27,6.23,32.36,32.36,0,0,1-21.85,0,19.48,19.48,0,0,1-8.32-6.23,30.94,30.94,0,0,1-5.34-11.36,67.73,67.73,0,0,1-1.9-17.32V193a67.74,67.74,0,0,1,1.87-17.23,29.75,29.75,0,0,1,5.31-11.19,19.4,19.4,0,0,1,8.3-6.09,30.61,30.61,0,0,1,10.88-1.84,31,31,0,0,1,11,1.84,19.36,19.36,0,0,1,8.33,6.09,29.43,29.43,0,0,1,5.28,11.19A68.33,68.33,0,0,1,778,193ZM767.4,191.25a61.15,61.15,0,0,0-1-12,23,23,0,0,0-3-8,12,12,0,0,0-5-4.45,17.32,17.32,0,0,0-13.55,0,11.79,11.79,0,0,0-4.94,4.45,23.82,23.82,0,0,0-3,8,59.5,59.5,0,0,0-1,12v16.19a60.52,60.52,0,0,0,1,12,24.68,24.68,0,0,0,3.07,8.24,12.75,12.75,0,0,0,5,4.71,16.22,16.22,0,0,0,13.58,0,12.48,12.48,0,0,0,4.91-4.71,24.71,24.71,0,0,0,2.95-8.24,64.06,64.06,0,0,0,1-12Z"/><path class="cls-14" d="M826.54,241.43H815.86V170.64l-21.42,7.86v-9.64l30.43-11.43h1.67Z"/><path class="cls-14" d="M911.63,163.8,877,241.43H865.87l34.51-74.87H855.13v-8.73h56.5Z"/><path class="cls-14" d="M506.62,111V27.44h24.69a40.16,40.16,0,0,1,15.3,2.82,33.77,33.77,0,0,1,11.89,8,36.37,36.37,0,0,1,7.72,12.55A46.4,46.4,0,0,1,569,67.23v4.14a46.65,46.65,0,0,1-2.73,16.39,35.43,35.43,0,0,1-7.75,12.49,34.47,34.47,0,0,1-12.11,8A42.57,42.57,0,0,1,530.62,111Zm14.53-71.89V99.44h9.47A26.22,26.22,0,0,0,541,97.52,19.25,19.25,0,0,0,548.45,92a24.29,24.29,0,0,0,4.45-8.84,42.7,42.7,0,0,0,1.5-11.77V67.12q0-13.61-5.92-20.79t-17.17-7.18Z"/><path class="cls-14" d="M609.46,112.19a31.94,31.94,0,0,1-12.4-2.3,27.18,27.18,0,0,1-9.36-6.31,27.65,27.65,0,0,1-5.92-9.53,33.57,33.57,0,0,1-2.06-11.89v-2.3a38.2,38.2,0,0,1,2.18-13.29,30.15,30.15,0,0,1,6-10.1A26.22,26.22,0,0,1,596.8,50a26.91,26.91,0,0,1,11.05-2.27A28.12,28.12,0,0,1,619.62,50a22.11,22.11,0,0,1,8.27,6.34,27.27,27.27,0,0,1,4.88,9.7,45,45,0,0,1,1.61,12.35v6h-40.6a22.38,22.38,0,0,0,1.52,6.66,16.53,16.53,0,0,0,3.36,5.25,15.32,15.32,0,0,0,5,3.48,16.31,16.31,0,0,0,6.57,1.26,18.59,18.59,0,0,0,9-2.07,21.06,21.06,0,0,0,6.63-5.68l7.52,7.18a26.06,26.06,0,0,1-3.7,4.33,25.26,25.26,0,0,1-5.17,3.73,29.26,29.26,0,0,1-6.69,2.64A32.24,32.24,0,0,1,609.46,112.19ZM607.79,59a11.73,11.73,0,0,0-9.27,4Q595,67,594,74.18H620.6v-1a26.52,26.52,0,0,0-.89-5.32,13.66,13.66,0,0,0-2.21-4.53,10.8,10.8,0,0,0-3.88-3.16A13.14,13.14,0,0,0,607.79,59Z"/><path class="cls-14" d="M666.36,93.36l13.15-44.44h14.41L672.39,111H660.27l-21.7-62.12H653Z"/><path class="cls-14" d="M708.27,111V59.25H698.8V48.92h9.47V43.06a25.93,25.93,0,0,1,1.52-9.19,18,18,0,0,1,4.34-6.72,18.63,18.63,0,0,1,6.86-4.1,27.55,27.55,0,0,1,9.1-1.41,28,28,0,0,1,4,.29,36.89,36.89,0,0,1,3.82.75l-.34,10.91a21.83,21.83,0,0,0-2.5-.35c-.9-.08-1.85-.11-2.84-.11q-4.83,0-7.41,2.52t-2.58,7.41v5.86h12.63V59.25H722.23V111Z"/><path class="cls-14" d="M771,112.19a32,32,0,0,1-12.4-2.3,27.18,27.18,0,0,1-9.36-6.31,27.47,27.47,0,0,1-5.91-9.53,33.58,33.58,0,0,1-2.07-11.89v-2.3a38.2,38.2,0,0,1,2.18-13.29,30.15,30.15,0,0,1,6-10.1A26.22,26.22,0,0,1,758.37,50a26.91,26.91,0,0,1,11-2.27A28.12,28.12,0,0,1,781.19,50a22.11,22.11,0,0,1,8.27,6.34,27.27,27.27,0,0,1,4.88,9.7A45,45,0,0,1,796,78.43v6H755.36a22.07,22.07,0,0,0,1.52,6.66,16.33,16.33,0,0,0,3.35,5.25,15.43,15.43,0,0,0,5,3.48,16.31,16.31,0,0,0,6.57,1.26,18.59,18.59,0,0,0,9-2.07,21,21,0,0,0,6.63-5.68l7.52,7.18a25.59,25.59,0,0,1-3.7,4.33,25,25,0,0,1-5.17,3.73,29.26,29.26,0,0,1-6.69,2.64A32.24,32.24,0,0,1,771,112.19ZM769.36,59a11.76,11.76,0,0,0-9.27,4q-3.52,4-4.51,11.2h26.59v-1a25.83,25.83,0,0,0-.89-5.32,13.66,13.66,0,0,0-2.21-4.53,10.8,10.8,0,0,0-3.88-3.16A13.14,13.14,0,0,0,769.36,59Z"/><path class="cls-14" d="M841.6,94.16a7.93,7.93,0,0,0-.49-2.78A5.71,5.71,0,0,0,839.18,89a15.47,15.47,0,0,0-4-2.09A48.1,48.1,0,0,0,828.33,85a61.11,61.11,0,0,1-9.1-2.58,28.26,28.26,0,0,1-7-3.76,16.43,16.43,0,0,1-4.57-5.2A14.12,14.12,0,0,1,806,66.6a16.25,16.25,0,0,1,1.66-7.21,18,18,0,0,1,4.8-6,23.78,23.78,0,0,1,7.58-4.1,30.72,30.72,0,0,1,10-1.52,33.38,33.38,0,0,1,10.42,1.52,23.75,23.75,0,0,1,7.84,4.19,17.91,17.91,0,0,1,6.6,14.1h-14a9.15,9.15,0,0,0-.69-3.48,8.64,8.64,0,0,0-2.07-3,10.09,10.09,0,0,0-3.42-2.1,13.36,13.36,0,0,0-4.73-.77,14.41,14.41,0,0,0-4.6.66,10.14,10.14,0,0,0-3.24,1.72,6.77,6.77,0,0,0-1.92,2.47,7.15,7.15,0,0,0-.63,3,6.35,6.35,0,0,0,.57,2.75,5.5,5.5,0,0,0,2,2.18,16.15,16.15,0,0,0,3.93,1.81,58.08,58.08,0,0,0,6.2,1.64,73.28,73.28,0,0,1,9.68,2.7,27,27,0,0,1,7.23,3.79,15.39,15.39,0,0,1,4.51,5.28,15.8,15.8,0,0,1,1.55,7.23,16.32,16.32,0,0,1-1.78,7.58,17.55,17.55,0,0,1-5.08,6,24.71,24.71,0,0,1-8,3.87,36.22,36.22,0,0,1-10.33,1.38,32.4,32.4,0,0,1-11.28-1.81,25.55,25.55,0,0,1-8.24-4.74,19.73,19.73,0,0,1-5-6.63,18,18,0,0,1-1.69-7.55h13.55a10.72,10.72,0,0,0,1.32,4.83,9.64,9.64,0,0,0,2.93,3.15,12.13,12.13,0,0,0,4,1.75,19,19,0,0,0,4.59.55c3.68,0,6.47-.7,8.39-2.1A6.48,6.48,0,0,0,841.6,94.16Z"/><path class="cls-14" d="M885,33.81V48.92h11V59.25H885V93.93a10.62,10.62,0,0,0,.46,3.45,4.34,4.34,0,0,0,1.32,2,4.64,4.64,0,0,0,2,1,12.44,12.44,0,0,0,2.62.26,19.46,19.46,0,0,0,2.78-.2c.9-.14,1.6-.26,2.1-.38v10.8c-1.11.31-2.4.6-3.88.89a27.91,27.91,0,0,1-5.31.43,21.52,21.52,0,0,1-6.4-.92,12.73,12.73,0,0,1-5.11-3,13.82,13.82,0,0,1-3.36-5.4A24.21,24.21,0,0,1,871,94.73V59.25H860.77V48.92H871V33.81Z"/><path id="_Compound_Path_" data-name="&lt;Compound Path&gt;" class="cls-14" d="M326.14,31h24.7c25.16,0,41,16.69,41,40.12s-15.8,40.13-41,40.13h-24.7V31Zm25.13,68.09c17.51,0,28.36-9.72,28.36-28s-10.85-28-28.36-28h-13V99.09Z"/><path id="_Path_7" data-name="&lt;Path&gt;" class="cls-14" d="M316,67.48H277.5V79.4h27.14c-.9,6.08-3,10.82-6.16,14-4,4-10.3,8.45-21.32,8.45-17,0-30.29-13.7-30.29-30.7a30.29,30.29,0,0,1,30.29-30.69A29.39,29.39,0,0,1,298,48.68l8.14-8.14A40.21,40.21,0,0,0,277.16,28.9c-23.28,0-42.85,19-42.85,42.23s19.57,42.24,42.85,42.24c12.56,0,22-4.12,29.46-11.85,7.62-7.62,10-18.33,10-27A36,36,0,0,0,316,67.48Z"/><path id="_Path_8" data-name="&lt;Path&gt;" class="cls-14" d="M481.35,67.48H442.87V79.4H470c-.89,6.08-3,10.82-6.16,14-4,4-10.3,8.45-21.32,8.45-17,0-30.28-13.7-30.28-30.7s13.28-30.69,30.28-30.69a29.43,29.43,0,0,1,20.81,8.24l8.13-8.14A40.19,40.19,0,0,0,442.52,28.9c-23.28,0-42.85,19-42.85,42.23s19.57,42.24,42.85,42.24c12.56,0,22-4.12,29.46-11.85,7.62-7.62,10-18.33,10-27A35.22,35.22,0,0,0,481.35,67.48Z"/></g></g></svg>