<svg xmlns="http://www.w3.org/2000/svg" xmlns:xlink="http://www.w3.org/1999/xlink" viewBox="0 0 177.35 283.75"><defs><style>.cls-1{fill:none;}.cls-2{fill:#ffc107;}.cls-3{fill:#0f9d58;}.cls-4{fill:#bf360c;}.cls-11,.cls-12,.cls-4,.cls-5,.cls-6{opacity:0.2;isolation:isolate;}.cls-5{fill:#263238;}.cls-6{fill:#fff;}.cls-7{fill:url(#radial-gradient);}.cls-8{fill:url(#radial-gradient-2);}.cls-9{fill:#4285f4;}.cls-10{fill:#db4437;}.cls-11{fill:#1a237e;}.cls-12{fill:#3e2723;}.cls-13{fill:url(#radial-gradient-3);}</style><radialGradient id="radial-gradient" cx="131.4" cy="1699.66" r="98.12" gradientTransform="matrix(1, 0, 0, -1, 0, 1926.6)" gradientUnits="userSpaceOnUse"><stop offset="0" stop-color="#bf360c" stop-opacity="0.2"/><stop offset="1" stop-color="#bf360c" stop-opacity="0.02"/></radialGradient><radialGradient id="radial-gradient-2" cx="131.12" cy="1699.04" r="98.92" gradientTransform="matrix(1, 0, 0, -1, 0, 1926.6)" gradientUnits="userSpaceOnUse"><stop offset="0" stop-color="#263238" stop-opacity="0.2"/><stop offset="1" stop-color="#263238" stop-opacity="0.02"/></radialGradient><radialGradient id="radial-gradient-3" cx="-2.22" cy="1924.38" r="297.82" gradientTransform="matrix(1, 0, 0, -1, 0, 1926.6)" gradientUnits="userSpaceOnUse"><stop offset="0" stop-color="#fff" stop-opacity="0.1"/><stop offset="1" stop-color="#fff" stop-opacity="0"/></radialGradient></defs><title>Asset 4</title><g id="Layer_2" data-name="Layer 2"><g id="Layer_1-2" data-name="Layer 1"><g id="_Group_" data-name="&lt;Group&gt;"><g id="_Group_2" data-name="&lt;Group&gt;"><path class="cls-1" d="M173.77,128.57,99.42,0H0L82.06,141.87,0,283.75H99.42l74.35-128.58A26.51,26.51,0,0,0,173.77,128.57Z"/><polygon id="_Path_" data-name="&lt;Path&gt;" class="cls-2" points="131.12 226.71 107.56 185.94 50.98 283.75 99.42 283.75 131.76 227.82 131.12 226.71"/><path class="cls-1" d="M173.77,128.57,99.42,0H0L82.06,141.87,0,283.75H99.42l74.35-128.58A26.51,26.51,0,0,0,173.77,128.57Z"/><polygon class="cls-3" points="82.06 141.87 107.56 185.94 50.98 283.75 0 283.75 82.06 141.87"/><path class="cls-1" d="M173.77,128.57,99.42,0H0L82.06,141.87,0,283.75H99.42l74.35-128.58A26.51,26.51,0,0,0,173.77,128.57Z"/><polygon class="cls-4" points="99.42 281.53 52.27 281.53 50.98 283.75 99.42 283.75 131.76 227.82 131.12 226.71 99.42 281.53"/><path class="cls-1" d="M173.77,128.57,99.42,0H0L82.06,141.87,0,283.75H99.42l74.35-128.58A26.51,26.51,0,0,0,173.77,128.57Z"/><polygon class="cls-5" points="1.29 281.53 0 283.75 50.98 283.75 52.27 281.53 1.29 281.53"/><path class="cls-1" d="M173.77,128.57,99.42,0H0L82.06,141.87,0,283.75H99.42l74.35-128.58A26.51,26.51,0,0,0,173.77,128.57Z"/><polygon class="cls-6" points="0 283.75 1.29 283.75 82.71 142.98 82.06 141.87 0 283.75"/><path class="cls-1" d="M173.77,128.57,99.42,0H0L82.06,141.87,0,283.75H99.42l74.35-128.58A26.51,26.51,0,0,0,173.77,128.57Z"/><polygon id="_Path_2" data-name="&lt;Path&gt;" class="cls-7" points="131.76 227.82 131.76 227.82 107.56 185.94 101.62 196.21 131.76 227.82"/><path class="cls-1" d="M173.77,128.57,99.42,0H0L82.06,141.87,0,283.75H99.42l74.35-128.58A26.51,26.51,0,0,0,173.77,128.57Z"/><polygon id="_Path_3" data-name="&lt;Path&gt;" class="cls-8" points="101.62 196.21 107.56 185.94 82.06 141.87 69.89 162.93 101.62 196.21"/><path class="cls-1" d="M173.77,128.57,99.42,0H0L82.06,141.87,0,283.75H99.42l74.35-128.58A26.51,26.51,0,0,0,173.77,128.57Z"/><g id="_Group_3" data-name="&lt;Group&gt;"><g id="_Group_4" data-name="&lt;Group&gt;"><polygon id="_Path_4" data-name="&lt;Path&gt;" class="cls-9" points="50.98 0 0 0 131.76 227.82 157.24 183.77 157.26 183.72 50.98 0"/></g></g><path class="cls-1" d="M173.77,128.57,99.42,0H0L82.06,141.87,0,283.75H99.42l74.35-128.58A26.51,26.51,0,0,0,173.77,128.57Z"/><path class="cls-10" d="M173.77,155.17a26.51,26.51,0,0,0,0-26.6L99.42,0H51L157.26,183.72Z"/><path class="cls-1" d="M173.77,128.57,99.42,0H0L82.06,141.87,0,283.75H99.42l74.35-128.58A26.51,26.51,0,0,0,173.77,128.57Z"/><polygon class="cls-11" points="157.26 183.72 156.61 182.64 131.76 225.6 1.29 0 0 0 131.76 227.82 157.24 183.77 157.26 183.72"/><path class="cls-1" d="M173.77,128.57,99.42,0H0L82.06,141.87,0,283.75H99.42l74.35-128.58A26.51,26.51,0,0,0,173.77,128.57Z"/><path class="cls-6" d="M99.42,2.22l74.35,128.57a26.32,26.32,0,0,1,3.5,12.19,26.57,26.57,0,0,0-3.5-14.41L99.42,0H0L1.29,2.22Z"/><path class="cls-1" d="M173.77,128.57,99.42,0H0L82.06,141.87,0,283.75H99.42l74.35-128.58A26.51,26.51,0,0,0,173.77,128.57Z"/><path id="_Path_5" data-name="&lt;Path&gt;" class="cls-12" d="M157.26,183.72l16.51-28.55a26.53,26.53,0,0,0,3.5-14.41,26.33,26.33,0,0,1-3.5,12.2l-17.16,29.68Z"/><path class="cls-1" d="M173.77,128.57,99.42,0H0L82.06,141.87,0,283.75H99.42l74.35-128.58A26.51,26.51,0,0,0,173.77,128.57Z"/><path id="_Path_6" data-name="&lt;Path&gt;" class="cls-13" d="M173.77,128.57,99.42,0H0L82.06,141.87,0,283.75H99.42l74.35-128.58A26.51,26.51,0,0,0,173.77,128.57Z"/></g></g></g></g></svg>